<?xml version="1.0" standalone="no"?>
<!DOCTYPE svg PUBLIC "-//W3C//DTD SVG 20010904//EN"
 "http://www.w3.org/TR/2001/REC-SVG-20010904/DTD/svg10.dtd">
<svg version="1.0" xmlns="http://www.w3.org/2000/svg"
 width="500.000000pt" height="500.000000pt" viewBox="0 0 500.000000 500.000000"
 preserveAspectRatio="xMidYMid meet">
<metadata>
Created by potrace 1.11, written by Peter Selinger 2001-2013
</metadata>
<g transform="translate(0.000000,500.000000) scale(0.100000,-0.100000)"
fill="#000000" stroke="none">
<path d="M2315 4489 c-455 -47 -885 -281 -1169 -636 -234 -291 -367 -629 -383
-970 l-6 -123 89 0 90 0 12 130 c66 686 541 1226 1222 1386 131 31 365 42 518
25 340 -40 655 -193 903 -440 131 -131 196 -216 268 -346 116 -211 174 -410
196 -677 l7 -78 90 0 91 0 -6 113 c-29 529 -318 1033 -764 1329 -177 118 -345
192 -548 243 -200 51 -405 65 -610 44z"/>
<path d="M1170 2869 c-49 -15 -94 -52 -114 -92 -13 -29 -16 -73 -16 -273 0
-220 2 -241 21 -280 32 -68 76 -89 179 -89 103 1 173 18 168 43 -4 19 -13 19
-108 1 -113 -21 -187 14 -210 101 -7 27 -10 114 -8 244 3 224 8 243 68 284 31
21 44 23 115 20 44 -3 86 -6 94 -9 8 -2 16 3 18 12 8 33 -137 59 -207 38z"/>
<path d="M3830 2544 c0 -362 0 -365 67 -401 30 -16 35 -16 43 -3 14 21 13 24
-12 35 -13 6 -31 26 -41 45 -15 30 -17 60 -15 215 l3 180 57 3 c45 2 60 7 68
22 10 19 7 20 -60 20 l-70 0 0 105 c0 98 -1 105 -20 105 -20 0 -20 -7 -20
-326z"/>
<path d="M1575 2656 c-39 -18 -79 -63 -94 -105 -6 -19 -11 -88 -11 -155 1
-163 23 -213 113 -251 91 -38 197 -7 244 72 27 46 28 53 28 183 0 125 -2 138
-25 180 -33 59 -92 90 -170 90 -30 -1 -68 -7 -85 -14z m173 -53 c50 -36 62
-76 62 -203 0 -128 -12 -167 -63 -204 -34 -25 -120 -29 -161 -7 -55 30 -66 65
-66 212 0 151 12 187 73 215 42 19 121 12 155 -13z"/>
<path d="M2060 2655 c-27 -9 -46 -11 -48 -5 -2 6 -15 10 -28 10 l-24 0 0 -260
0 -260 25 0 25 0 0 229 0 228 48 14 c64 18 143 16 179 -6 55 -32 58 -43 61
-262 3 -193 4 -203 23 -203 18 0 19 9 19 209 0 199 -1 209 -23 241 -12 19 -37
43 -55 53 -43 25 -143 31 -202 12z"/>
<path d="M2595 2660 c-16 -5 -40 -12 -52 -15 -15 -5 -23 -3 -23 4 0 6 -9 11
-20 11 -19 0 -20 -7 -20 -260 0 -253 1 -260 20 -260 19 0 20 7 20 225 0 256
-7 238 97 255 75 13 131 -1 166 -40 l27 -30 0 -205 0 -205 26 0 25 0 -3 214
c-3 200 -4 217 -24 243 -12 15 -35 36 -53 47 -36 21 -139 30 -186 16z"/>
<path d="M3077 2656 c-93 -34 -107 -70 -107 -273 0 -186 8 -209 84 -238 56
-22 163 -16 219 11 39 19 41 22 29 41 -6 10 -20 8 -60 -7 -71 -27 -140 -26
-183 3 -36 24 -46 49 -48 113 -1 39 1 42 30 48 17 3 57 6 89 6 31 0 92 3 135
7 l77 6 -4 96 c-3 82 -7 102 -27 130 -45 63 -147 88 -234 57z m143 -42 c53
-21 70 -55 70 -139 l0 -65 -48 0 c-27 0 -90 -3 -140 -6 l-92 -7 1 59 c0 91 16
125 69 152 53 26 85 28 140 6z"/>
<path d="M3524 2651 c-44 -20 -74 -56 -92 -110 -15 -42 -16 -243 -2 -293 26
-92 137 -136 283 -112 27 5 37 11 37 26 0 17 -6 18 -77 12 -98 -7 -148 8 -180
55 -21 31 -23 45 -23 163 0 139 8 169 55 206 35 28 109 36 167 19 41 -13 47
-13 52 0 3 8 6 16 6 18 0 9 -107 35 -144 35 -23 0 -59 -9 -82 -19z"/>
<path d="M786 2607 c-45 -38 -34 -61 12 -28 l29 20 -5 -135 c-5 -132 -4 -134
17 -134 21 0 21 4 21 155 0 177 -3 182 -74 122z"/>
<path d="M4091 2624 c-28 -20 -14 -42 17 -25 27 15 85 14 100 -1 33 -33 7 -90
-77 -173 -88 -86 -85 -95 39 -95 82 0 100 3 100 15 0 12 -16 15 -82 15 l-81 0
66 69 c37 38 71 81 77 97 14 36 4 80 -23 99 -28 20 -107 19 -136 -1z"/>
<path d="M763 2128 c36 -692 515 -1314 1184 -1538 202 -67 260 -75 563 -75
l275 1 135 36 c285 77 490 182 712 367 350 292 583 755 605 1199 l6 122 -90 0
-89 0 -12 -128 c-63 -674 -529 -1214 -1190 -1381 -284 -72 -647 -48 -922 61
-404 160 -726 476 -886 873 -59 146 -93 302 -109 498 l-7 77 -90 0 -91 0 6
-112z"/>
</g>
</svg>
